<svg width="71" height="70" viewBox="0 0 71 70" fill="none" xmlns="http://www.w3.org/2000/svg">
<path d="M15.8278 64.3777L11.3145 13.7566H60.9071L56.3891 64.3697L36.0804 70L15.8278 64.3777Z" fill="#264DE4"/>
<path d="M52.5211 61.147L56.3821 17.8958H36.1108V65.6966L52.5211 61.147Z" fill="#2965F1"/>
<path d="M21.661 36.6704L22.2174 42.8788H36.1108V36.6704H21.661Z" fill="#EBEBEB"/>
<path d="M21.1073 30.3128H36.1108V24.1042H36.0893H20.5429L21.1073 30.3128Z" fill="#EBEBEB"/>
<path d="M36.0822 59.2616L36.1108 59.2536V52.7942L36.0836 52.8015L29.1692 50.9345L28.7272 45.9829H25.3673H22.4948L23.3646 55.7311L36.0822 59.2616Z" fill="#EBEBEB"/>
<path d="M22.9858 0H30.5053V3.14453H26.1303V6.28906H30.5053V9.43359H22.9858V0Z" fill="black"/>
<path d="M32.0092 0H39.5288V2.73437H35.1538V3.28125H39.5288V9.57031H32.0092V6.69922H36.3842V6.15234H32.0092V0Z" fill="black"/>
<path d="M41.0327 0H48.5522V2.73437H44.1772V3.28125H48.5522V9.57031H41.0327V6.69922H45.4077V6.15234H41.0327V0Z" fill="black"/>
<path d="M51.6416 24.1042H36.0893V30.3128H44.8377L44.2728 36.6703H36.0893V42.8787H43.7344L43.0137 50.9307L36.0893 52.7996V59.2587L48.817 55.7313L48.9104 54.6824L50.3693 38.3375L50.5208 36.6703L51.6416 24.1042Z" fill="white"/>
</svg>
