<svg width="41" height="60" viewBox="0 0 41 60" fill="none" xmlns="http://www.w3.org/2000/svg">
<g clip-path="url(#clip0_519_48)">
<path d="M10.7912 60C16.3112 60 20.7912 55.52 20.7912 50V40H10.7912C5.27117 40 0.791168 44.48 0.791168 50C0.791168 55.52 5.27117 60 10.7912 60Z" fill="#0ACF83"/>
<path d="M0.791168 30C0.791168 24.48 5.27117 20 10.7912 20H20.7912V40H10.7912C5.27117 40 0.791168 35.52 0.791168 30Z" fill="#A259FF"/>
<path d="M0.791168 10C0.791168 4.48 5.27117 0 10.7912 0H20.7912V20H10.7912C5.27117 20 0.791168 15.52 0.791168 10Z" fill="#F24E1E"/>
<path d="M20.7912 0H30.7912C36.3112 0 40.7912 4.48 40.7912 10C40.7912 15.52 36.3112 20 30.7912 20H20.7912V0Z" fill="#FF7262"/>
<path d="M40.7912 30C40.7912 35.52 36.3112 40 30.7912 40C25.2712 40 20.7912 35.52 20.7912 30C20.7912 24.48 25.2712 20 30.7912 20C36.3112 20 40.7912 24.48 40.7912 30Z" fill="#1ABCFE"/>
</g>
<defs>
<clipPath id="clip0_519_48">
<rect width="40.008" height="60" fill="white" transform="translate(0.78717)"/>
</clipPath>
</defs>
</svg>
