<svg width="61" height="60" viewBox="0 0 61 60" fill="none" xmlns="http://www.w3.org/2000/svg">
<g clip-path="url(#clip0_519_55)">
<path d="M59.6627 27.3281L33.4671 1.13246C33.1084 0.773595 32.6825 0.488915 32.2138 0.294686C31.745 0.100458 31.2426 0.000488281 30.7352 0.000488281C30.2278 0.000488281 29.7254 0.100458 29.2567 0.294686C28.7879 0.488915 28.362 0.773595 28.0034 1.13246L22.5659 6.56996L29.4659 13.47C31.0709 12.9075 32.9084 13.2918 34.1871 14.5706C34.7958 15.1804 35.2208 15.9491 35.4134 16.7889C35.606 17.6288 35.5586 18.5058 35.2765 19.32L41.9271 25.9706C43.5359 25.4156 45.3921 25.7737 46.6765 27.0618C47.1034 27.4889 47.4421 27.9959 47.6731 28.5539C47.9041 29.1118 48.023 29.7099 48.0229 30.3138C48.0228 30.9177 47.9038 31.5156 47.6726 32.0735C47.4414 32.6314 47.1026 33.1383 46.6755 33.5653C46.2485 33.9922 45.7415 34.3309 45.1835 34.5619C44.6255 34.7929 44.0275 34.9118 43.4236 34.9117C42.8197 34.9116 42.2218 34.7926 41.6639 34.5614C41.106 34.3302 40.5991 33.9914 40.1721 33.5643C38.8221 32.2143 38.4884 30.2268 39.1709 28.5637L32.9684 22.3612V38.6831C33.4186 38.9059 33.8301 39.1997 34.1871 39.5531C34.6141 39.98 34.9527 40.4869 35.1838 41.0448C35.4149 41.6026 35.5338 42.2005 35.5338 42.8043C35.5338 43.4082 35.4149 44.0061 35.1838 44.5639C34.9527 45.1218 34.6141 45.6286 34.1871 46.0556C33.7601 46.4826 33.2533 46.8212 32.6954 47.0523C32.1376 47.2834 31.5397 47.4023 30.9359 47.4023C30.332 47.4023 29.7341 47.2834 29.1763 47.0523C28.6184 46.8212 28.1116 46.4826 27.6846 46.0556C27.2571 45.6289 26.918 45.1221 26.6866 44.5642C26.4552 44.0064 26.3361 43.4083 26.3361 42.8043C26.3361 42.2004 26.4552 41.6023 26.6866 41.0444C26.918 40.4866 27.2571 39.9798 27.6846 39.5531C28.129 39.1106 28.6221 38.775 29.1902 38.55V22.0762C28.6427 21.8512 28.129 21.5193 27.6846 21.0731C27.039 20.4283 26.6 19.6058 26.4237 18.7105C26.2474 17.8152 26.3417 16.8877 26.6946 16.0462L19.8884 9.24371L1.92585 27.1875C1.5667 27.5462 1.28178 27.9722 1.08739 28.4411C0.892996 28.91 0.792938 29.4127 0.792938 29.9203C0.792938 30.4279 0.892996 30.9305 1.08739 31.3994C1.28178 31.8684 1.5667 32.2944 1.92585 32.6531L28.1234 58.8468C28.482 59.2057 28.9079 59.4904 29.3767 59.6846C29.8454 59.8788 30.3478 59.9788 30.8552 59.9788C31.3626 59.9788 31.865 59.8788 32.3338 59.6846C32.8025 59.4904 33.2284 59.2057 33.5871 58.8468L59.6627 32.8125C60.0219 32.4537 60.3068 32.0277 60.5012 31.5588C60.6956 31.0899 60.7956 30.5873 60.7956 30.0797C60.7956 29.572 60.6956 29.0694 60.5012 28.6005C60.3068 28.1316 60.0219 27.7056 59.6627 27.3468" fill="#F03C2E"/>
</g>
<defs>
<clipPath id="clip0_519_55">
<rect width="60" height="60" fill="white" transform="translate(0.795227)"/>
</clipPath>
</defs>
</svg>
