<svg width="61" height="60" viewBox="0 0 61 60" fill="none" xmlns="http://www.w3.org/2000/svg">
<g clip-path="url(#clip0_519_57)">
<path d="M30.6792 0.815918C14.1769 0.815918 0.795227 14.1952 0.795227 30.6999C0.795227 43.9037 9.35788 55.1054 21.2318 59.0569C22.7252 59.3335 23.2737 58.4087 23.2737 57.6193C23.2737 56.9068 23.2458 54.5525 23.2331 52.0554C14.9191 53.8632 13.1648 48.5295 13.1648 48.5295C11.8055 45.0753 9.84679 44.157 9.84679 44.157C7.13554 42.3022 10.0512 42.3401 10.0512 42.3401C13.0521 42.5511 14.6323 45.4198 14.6323 45.4198C17.2976 49.9885 21.6232 48.6676 23.3285 47.9042C23.5966 45.9725 24.3712 44.6544 25.2258 43.9081C18.5883 43.1522 11.6105 40.5898 11.6105 29.1392C11.6105 25.8767 12.7779 23.2107 14.6897 21.1179C14.3794 20.3651 13.3566 17.3258 14.9791 13.2094C14.9791 13.2094 17.4886 12.4062 23.1994 16.2727C25.583 15.6104 28.1395 15.2785 30.6792 15.2672C33.2189 15.2785 35.7773 15.6104 38.1656 16.2727C43.8696 12.4062 46.3755 13.2094 46.3755 13.2094C48.0021 17.3258 46.9788 20.3651 46.6685 21.1179C48.5845 23.2107 49.744 25.8765 49.744 29.1392C49.744 40.617 42.753 43.1445 36.0987 43.8842C37.1705 44.8116 38.1255 46.6304 38.1255 49.4183C38.1255 53.4167 38.0909 56.6349 38.0909 57.6193C38.0909 58.4145 38.6287 59.3464 40.1437 59.0529C52.0111 55.0969 60.563 43.8992 60.563 30.6999C60.563 14.1952 47.1832 0.815918 30.6792 0.815918Z" fill="#161614"/>
<path d="M11.9878 43.3864C11.9222 43.5348 11.6883 43.5793 11.4757 43.4776C11.2589 43.3801 11.137 43.1776 11.2073 43.0285C11.2718 42.8757 11.5057 42.833 11.722 42.9357C11.9393 43.033 12.063 43.2373 11.9878 43.3864ZM13.4578 44.698C13.3153 44.8301 13.0366 44.7687 12.8475 44.5599C12.652 44.3515 12.6155 44.0731 12.7601 43.9388C12.907 43.8069 13.1773 43.8685 13.3732 44.0771C13.5687 44.2878 13.6066 44.5646 13.4576 44.6982M14.4663 46.3761C14.283 46.5033 13.9835 46.384 13.7986 46.1183C13.6155 45.8527 13.6155 45.534 13.8026 45.4062C13.9882 45.2785 14.283 45.3933 14.4705 45.657C14.6534 45.9273 14.6534 46.246 14.4661 46.3763M16.1716 48.3198C16.0078 48.5002 15.6591 48.4519 15.4036 48.2054C15.1425 47.9644 15.0696 47.6225 15.2339 47.4418C15.3996 47.2608 15.7505 47.3117 16.0078 47.5562C16.2673 47.7966 16.3463 48.1412 16.1716 48.3198ZM18.3757 48.976C18.3038 49.2099 17.9677 49.3163 17.6292 49.2169C17.2912 49.1145 17.07 48.8403 17.1382 48.6038C17.2085 48.3683 17.546 48.2574 17.887 48.3638C18.2245 48.4658 18.446 48.7379 18.3757 48.976ZM20.8845 49.2542C20.8929 49.5008 20.6058 49.7051 20.2505 49.7096C19.893 49.7173 19.6041 49.5179 19.6003 49.2755C19.6003 49.0266 19.8809 48.8241 20.238 48.8183C20.5934 48.8112 20.8845 49.0093 20.8845 49.2542ZM23.3487 49.1598C23.3913 49.4002 23.1443 49.6473 22.7916 49.7129C22.4447 49.7762 22.1236 49.6278 22.0793 49.3894C22.0362 49.1429 22.2879 48.8961 22.6341 48.8321C22.9875 48.7707 23.3037 48.9153 23.3487 49.1598Z" fill="#161614"/>
</g>
<defs>
<clipPath id="clip0_519_57">
<rect width="60" height="58.368" fill="white" transform="translate(0.795227 0.815918)"/>
</clipPath>
</defs>
</svg>
