<svg width="50" height="70" viewBox="0 0 50 70" fill="none" xmlns="http://www.w3.org/2000/svg">
<path d="M4.71513 64.3808L0.204773 13.7471H49.7872L45.2768 64.3617L24.9577 70L4.71513 64.3808Z" fill="#E44D26"/>
<path d="M24.996 65.7028L41.4077 61.1528L45.2768 17.8882H24.996V65.7028Z" fill="#F16529"/>
<path d="M24.996 36.6722H16.771L16.2077 30.3134H24.996V24.1118H24.9768H9.42099L9.57685 25.7634L11.0931 42.8751H24.996V36.6722Z" fill="#EBEBEB"/>
<path d="M24.996 52.7913L24.9768 52.8118L18.0548 50.9251L17.6077 45.9868H14.2431H11.3843L12.2401 55.728L24.9768 59.2663L24.996 59.2472V52.7913Z" fill="#EBEBEB"/>
<path d="M4.81219 0H7.9622V3.11172H10.8401V0H13.9901V9.43086H10.8401V6.26172H7.9622V9.43086H4.81219V0Z" fill="black"/>
<path d="M18.1518 3.13086H15.371V0H24.0827V3.13086H21.3018V9.43086H18.1518V3.13086Z" fill="black"/>
<path d="M25.4827 0H28.7694L30.7915 3.325L32.8122 0H36.0989V9.43086H32.968V4.76328L30.7901 8.12656H30.7313L28.5534 4.76328V9.45H25.4622V0H25.4827Z" fill="black"/>
<path d="M37.6739 0H40.8239V6.31914H45.2577V9.43086H37.6739V0Z" fill="black"/>
<path d="M24.9768 36.6721V42.875H32.618L31.8989 50.925L24.9768 52.7913V59.2663L37.693 55.728L37.7901 54.678L39.2489 38.3442L39.4048 36.6721H37.7327H24.9768Z" fill="white"/>
<path d="M24.9768 24.1118V27.9618V30.2942V30.3134H39.9489H39.968L40.1048 28.9134L40.3768 25.7634L40.5327 24.1118H24.9768Z" fill="white"/>
</svg>
