<svg width="71" height="70" viewBox="0 0 71 70" fill="none" xmlns="http://www.w3.org/2000/svg">
<g clip-path="url(#clip0_519_74)">
<path d="M61.0255 40.2136C58.5782 40.232 56.4591 41.0157 54.6817 42.1826C54.0255 40.4508 53.3692 38.9376 53.26 37.8076C53.1369 36.4951 52.9865 35.6928 53.1369 34.1253C53.2872 32.5574 53.9708 30.3334 53.9708 30.1511C53.957 29.9871 53.8203 29.185 52.4122 29.1668C51.0041 29.1485 49.7872 29.5313 49.6505 30.0235C49.5137 30.5157 49.2403 31.6459 49.0626 32.8126C48.8165 34.5261 46.2462 40.5964 44.7833 43.7865C44.3048 42.547 43.8946 41.4532 43.8124 40.578C43.6895 39.2657 43.539 38.4634 43.6895 36.8959C43.8399 35.328 44.5235 33.1043 44.5235 32.922C44.5098 32.7579 44.3731 31.9558 42.9651 31.9376C41.5567 31.9194 40.3401 32.3022 40.2033 32.7944C40.0666 33.2865 39.9162 34.4532 39.6154 35.5834C39.3282 36.7136 35.9102 46.849 35.0216 49.4923C34.5704 50.8412 34.174 51.9168 33.8868 52.6459C33.5997 53.3751 33.8731 52.7006 33.8458 52.7735C33.5997 53.3933 33.463 53.7397 33.463 53.7397V53.7581C33.2716 54.2138 33.0665 54.6511 32.9706 54.6511C32.9023 54.6511 32.7656 53.4298 32.998 51.7529C33.5038 48.2345 34.7343 42.7477 34.7208 42.5471C34.7208 42.456 34.9531 41.4897 33.9277 40.9977C32.9296 40.5055 32.5743 41.3258 32.4921 41.3258C32.4101 41.3258 32.3417 41.6175 32.3417 41.6175C32.3417 41.6175 33.4492 35.4379 30.2226 35.4379C28.1992 35.4379 25.4101 38.3728 24.0292 41.0525C23.1542 41.6906 21.2949 43.0393 19.3261 44.4796C18.5742 45.0265 17.7949 45.6098 17.0566 46.1385L16.9063 45.9194C12.9962 40.3595 5.76375 36.422 6.06453 28.948C6.1739 26.2319 6.88484 19.0678 19.9553 10.3907C30.6604 3.28133 39.2326 5.23186 40.7227 9.5704C42.8419 15.7683 36.1427 27.2891 25.0139 28.948C20.7756 29.586 18.547 27.3985 17.9865 26.5782C17.3987 25.7214 17.3166 25.685 17.0979 25.849C16.7424 26.1043 16.9612 26.8699 17.0979 27.3256C17.426 28.474 18.7932 30.5157 21.1174 31.5365C23.1544 32.4298 28.1311 32.922 34.1467 29.823C40.8869 26.3412 46.1506 16.6798 44.6057 8.60425C43.0334 0.382897 32.8069 -2.31502 23.1408 2.2605C17.3848 4.99488 11.1505 9.2605 6.66609 14.8569C1.33406 21.4923 0.486404 27.2891 0.841873 29.6954C2.08615 38.2813 10.9591 43.8777 14.5137 48.0157C14.336 48.1431 14.172 48.2707 14.0216 48.3803C12.2442 49.5468 5.47664 54.2683 3.78133 59.2629C1.86726 64.914 4.08211 68.9793 5.55867 69.5261C10.1251 71.2214 14.8009 68.1772 17.3302 63.1642C19.8456 58.1511 19.545 51.6433 18.3829 48.672L18.3417 48.5626L19.7363 47.4688C20.6387 46.7579 21.5274 46.1016 22.3066 45.5364C21.8692 47.1223 21.5546 48.9999 21.3907 51.7343C21.1993 54.9428 22.1837 59.0989 23.4825 60.7395C24.0567 61.4502 24.7403 61.4687 25.1641 61.4687C26.668 61.4687 27.3516 59.8096 28.1036 57.8228C29.0333 55.3983 29.8536 52.591 29.8536 52.591C29.8536 52.591 28.8282 60.1926 31.6309 60.1926C32.6563 60.1926 33.6817 58.4244 34.1466 57.5129V57.5312C34.1466 57.5312 34.1739 57.4765 34.2286 57.3489C34.286 57.2358 34.3407 57.1203 34.3927 57.0027V56.9662C34.8028 56.0183 35.7188 53.849 37.086 50.2579C38.8495 45.6277 40.545 39.8308 40.545 39.8308C40.545 39.8308 40.7091 41.2527 41.2149 43.586C41.5156 44.9716 42.1718 46.4845 42.6777 47.961C42.2675 48.7267 42.0214 49.1643 42.0214 49.1643L42.0351 49.1826C41.7071 49.7659 41.3378 50.3859 40.9552 51.0055C39.5606 53.2294 37.8927 55.7635 37.6739 56.4926C37.4141 57.3492 37.4688 57.9873 37.9747 58.4978C38.3438 58.8624 39.0001 58.9352 39.6973 58.8624C40.9552 58.7529 41.8302 58.3338 42.2677 58.0784C42.9512 57.7503 43.7305 57.2581 44.4825 56.5289C45.8497 55.1801 46.6837 53.2661 46.6016 50.714C46.5606 49.3103 46.2188 47.9249 45.795 46.6124C45.918 46.3754 46.0412 46.1383 46.1641 45.8833C48.3243 41.6721 49.9923 37.0421 49.9923 37.0421C49.9923 37.0421 50.1563 38.464 50.6622 40.7973C50.9218 41.9822 51.4415 43.2767 51.9063 44.5527C49.8829 46.7584 48.6114 49.3105 48.1739 50.9876C47.3673 54.0866 47.9962 55.4902 49.1856 55.8183C49.7187 55.9642 50.4845 55.6361 51.0585 55.3079C51.7695 54.998 52.6308 54.4692 53.4239 53.6855C54.7911 52.3366 56.1036 50.459 56.0352 47.9251C55.9942 46.7584 55.7618 45.61 55.4473 44.5163C57.17 43.5683 59.3984 43.0215 62.2286 43.4772C68.3126 44.4251 69.5157 49.4928 69.2834 51.6074C69.051 53.7222 67.7795 54.8887 67.3555 55.2532C66.9317 55.5996 66.795 55.7274 66.836 55.9824C66.8907 56.3654 67.0821 56.347 67.4512 56.2743C67.9571 56.1647 70.6505 54.5425 70.7598 50.6416C70.9239 45.6279 67.3555 40.1591 61.0255 40.2136ZM14.1036 61.3048C12.0938 64.2397 9.26375 65.3516 8.06062 64.4037C6.76179 63.4011 7.26752 59.0808 9.74226 55.9636C11.2462 54.0678 13.2012 52.3178 14.4864 51.2423C14.7735 51.0053 15.211 50.6591 15.7305 50.2397C15.8126 50.1669 15.8673 50.1303 15.8673 50.1303C15.963 50.0574 16.0723 49.9662 16.1817 49.8751C17.0977 54.323 16.2227 58.224 14.1036 61.3048ZM28.8009 47.9793C28.1036 50.2579 26.627 56.1095 25.7384 55.7813C24.9726 55.5079 24.5079 51.0782 25.5878 46.7032C26.1347 44.4973 27.2968 41.8725 27.9804 40.8515C29.088 39.2108 30.291 38.664 30.5919 39.3384C30.9473 40.2136 29.2384 46.5574 28.8009 47.9793ZM40.9278 55.7084C40.627 55.9091 40.3536 56.0548 40.2305 55.9456C40.1348 55.8727 40.3535 55.5992 40.3535 55.5992C40.3535 55.5992 41.871 53.43 42.4726 52.4274C42.8144 51.8442 43.2245 51.1697 43.662 50.4039V50.6227C43.6622 53.2475 41.7755 54.9975 40.9278 55.7084ZM50.2792 52.8647C50.0605 52.6459 50.088 51.9714 50.8261 49.8569C51.1134 49.0183 51.7695 47.6147 52.9042 46.2839C53.041 46.8308 53.1231 47.3593 53.1093 47.8516C53.0958 51.1329 51.3458 52.3543 50.2792 52.8647Z" fill="#CF649A"/>
</g>
<defs>
<clipPath id="clip0_519_74">
<rect width="70" height="70" fill="white" transform="translate(0.787186)"/>
</clipPath>
</defs>
</svg>
