<svg width="61" height="60" viewBox="0 0 61 60" fill="none" xmlns="http://www.w3.org/2000/svg">
<path d="M18.7854 18.5171H15.472L24.5052 44.0519L29.5623 29.6005L25.6415 18.5171H22.1456V16.084H37.6267V18.5171H34.0014L43.0345 44.0519L46.2815 34.7727C50.541 22.8843 42.7904 19.1811 42.7904 16.5279C42.7904 13.8747 44.9413 11.724 47.5943 11.724C47.7379 11.724 47.8773 11.7318 48.0138 11.7445C43.5185 7.50082 37.4569 4.89844 30.7869 4.89844C22.0716 4.89844 14.3947 9.34087 9.89439 16.084H18.7851V18.5171H18.7854Z" fill="#00769D"/>
<path d="M5.68557 30C5.68557 39.6102 11.0871 47.9576 19.0189 52.1757L7.691 20.1543C6.4006 23.1774 5.68557 26.5051 5.68557 30Z" fill="#00769D"/>
<path d="M52.6329 17.6306C52.992 19.7447 52.8833 22.1209 52.3323 24.5063H52.4321L52.0526 25.5908C51.8277 26.3739 51.5445 27.175 51.2228 27.9622L42.5856 52.1594C50.5008 47.9362 55.8885 39.5978 55.8885 29.9997C55.8885 25.5022 54.7045 21.2816 52.6329 17.6306Z" fill="#00769D"/>
<path d="M23.0456 53.8829C25.4842 54.6728 28.0853 55.1013 30.7872 55.1013C33.3642 55.1013 35.8503 54.7124 38.1906 53.9909L30.8482 33.2354L23.0456 53.8829Z" fill="#00769D"/>
<path d="M52.0003 8.78675C46.3341 3.12053 38.8003 0 30.7871 0C22.7738 0 15.2402 3.12053 9.57394 8.78675C3.90771 14.453 0.787186 21.9866 0.787186 30C0.787186 38.0133 3.90771 45.5469 9.57394 51.2131C15.2402 56.8793 22.7739 59.9999 30.7872 59.9999C38.8005 59.9999 46.3341 56.8793 52.0004 51.2131C57.6667 45.5469 60.7872 38.0132 60.7872 30C60.7871 21.9866 57.6665 14.453 52.0003 8.78675ZM30.7871 57.8836C15.412 57.8836 2.90346 45.3751 2.90346 30C2.90346 14.6249 15.412 2.11627 30.7871 2.11627C46.1621 2.11627 58.6706 14.6249 58.6706 30C58.6706 45.3751 46.1623 57.8836 30.7871 57.8836Z" fill="#00769D"/>
</svg>
